<svg id="Layer_1" data-name="Layer 1" xmlns="http://www.w3.org/2000/svg" viewBox="0 0 644 644"><defs><style>.cls-1{fill:#0cf2a8;}</style></defs><path class="cls-1" d="M322,34A288.08,288.08,0,0,1,434.09,587.38,288.08,288.08,0,0,1,209.91,56.62,286.13,286.13,0,0,1,322,34m0-34C144.16,0,0,144.16,0,322S144.16,644,322,644,644,499.84,644,322,499.84,0,322,0Z"/><path class="cls-1" d="M356.73,170.39,373.3,109.2a32.33,32.33,0,0,0-62.41-16.9l-16.57,61.19A123.39,123.39,0,0,1,356.73,170.39Z"/><path class="cls-1" d="M287.89,473.46l-16.57,61.19a32.33,32.33,0,1,0,62.41,16.9l16.57-61.18A123.4,123.4,0,0,1,287.89,473.46Z"/><path class="cls-1" d="M444,310.31a109.62,109.62,0,0,0-28.14-30.94l-21.38,97h0a45.22,45.22,0,1,1-88.69-17.7l20-73.85A32.33,32.33,0,0,0,302.39,245c-17.22-4.33-34.6,6.72-39.3,23.83h0L240.27,372.05A109.92,109.92,0,1,0,444,310.31Z"/><path class="cls-1" d="M250.06,268.22a45.23,45.23,0,1,1,88.84,17l-20,73.86a32.34,32.34,0,0,0,23.24,39.79c17.26,4.39,34.75-6.58,39.41-23.78l22.82-103.17a109.91,109.91,0,1,0-175.53,92.61Z"/></svg>